solid OpenSCAD_Model
  facet normal 0.965927 0.258816 0
    outer loop
      vertex 8.31425 1.76725 6
      vertex 8.08398 2.62664 0
      vertex 8.08398 2.62664 6
    endloop
  endfacet
  facet normal 0.965927 0.258816 0
    outer loop
      vertex 8.08398 2.62664 0
      vertex 8.31425 1.76725 6
      vertex 8.31425 1.76725 0
    endloop
  endfacet
  facet normal 0.99863 0.0523316 0
    outer loop
      vertex 8.5 0 6
      vertex 8.45344 0.888492 0
      vertex 8.45344 0.888492 6
    endloop
  endfacet
  facet normal 0.99863 0.0523316 0
    outer loop
      vertex 8.45344 0.888492 0
      vertex 8.5 0 6
      vertex 8.5 0 0
    endloop
  endfacet
  facet normal -0.99863 0.0523316 0
    outer loop
      vertex -8.5 0 0
      vertex -8.45344 0.888492 6
      vertex -8.45344 0.888492 0
    endloop
  endfacet
  facet normal -0.99863 0.0523316 0
    outer loop
      vertex -8.45344 0.888492 6
      vertex -8.5 0 0
      vertex -8.5 0 6
    endloop
  endfacet
  facet normal 0.0523316 0.99863 -0
    outer loop
      vertex 0.888492 8.45344 0
      vertex 0 8.5 6
      vertex 0.888492 8.45344 6
    endloop
  endfacet
  facet normal 0.0523316 0.99863 0
    outer loop
      vertex 0 8.5 6
      vertex 0.888492 8.45344 0
      vertex 0 8.5 0
    endloop
  endfacet
  facet normal 0.707107 0.707107 0
    outer loop
      vertex 6.31673 5.68761 6
      vertex 5.68761 6.31673 0
      vertex 5.68761 6.31673 6
    endloop
  endfacet
  facet normal 0.707107 0.707107 0
    outer loop
      vertex 5.68761 6.31673 0
      vertex 6.31673 5.68761 6
      vertex 6.31673 5.68761 0
    endloop
  endfacet
  facet normal -0.629316 0.77715 0
    outer loop
      vertex -4.99617 6.87664 0
      vertex -5.68761 6.31673 6
      vertex -4.99617 6.87664 6
    endloop
  endfacet
  facet normal -0.629316 0.77715 0
    outer loop
      vertex -5.68761 6.31673 6
      vertex -4.99617 6.87664 0
      vertex -5.68761 6.31673 0
    endloop
  endfacet
  facet normal -0.358363 0.933582 0
    outer loop
      vertex -2.62664 8.08398 0
      vertex -3.45726 7.76514 6
      vertex -2.62664 8.08398 6
    endloop
  endfacet
  facet normal -0.358363 0.933582 0
    outer loop
      vertex -3.45726 7.76514 6
      vertex -2.62664 8.08398 0
      vertex -3.45726 7.76514 0
    endloop
  endfacet
  facet normal -0.838665 -0.544648 0
    outer loop
      vertex -6.87664 -4.99617 0
      vertex -7.36122 -4.25 6
      vertex -7.36122 -4.25 0
    endloop
  endfacet
  facet normal -0.838665 -0.544648 0
    outer loop
      vertex -7.36122 -4.25 6
      vertex -6.87664 -4.99617 0
      vertex -6.87664 -4.99617 6
    endloop
  endfacet
  facet normal 0.933582 0.358363 0
    outer loop
      vertex 8.08398 2.62664 6
      vertex 7.76514 3.45726 0
      vertex 7.76514 3.45726 6
    endloop
  endfacet
  facet normal 0.933582 0.358363 0
    outer loop
      vertex 7.76514 3.45726 0
      vertex 8.08398 2.62664 6
      vertex 8.08398 2.62664 0
    endloop
  endfacet
  facet normal 0.453989 0.891007 -0
    outer loop
      vertex 4.25 7.36122 0
      vertex 3.45726 7.76514 6
      vertex 4.25 7.36122 6
    endloop
  endfacet
  facet normal 0.453989 0.891007 0
    outer loop
      vertex 3.45726 7.76514 6
      vertex 4.25 7.36122 0
      vertex 3.45726 7.76514 0
    endloop
  endfacet
  facet normal 0.629316 0.77715 -0
    outer loop
      vertex 5.68761 6.31673 0
      vertex 4.99617 6.87664 6
      vertex 5.68761 6.31673 6
    endloop
  endfacet
  facet normal 0.629316 0.77715 0
    outer loop
      vertex 4.99617 6.87664 6
      vertex 5.68761 6.31673 0
      vertex 4.99617 6.87664 0
    endloop
  endfacet
  facet normal -0.838665 0.544648 0
    outer loop
      vertex -7.36122 4.25 0
      vertex -6.87664 4.99617 6
      vertex -6.87664 4.99617 0
    endloop
  endfacet
  facet normal -0.838665 0.544648 0
    outer loop
      vertex -6.87664 4.99617 6
      vertex -7.36122 4.25 0
      vertex -7.36122 4.25 6
    endloop
  endfacet
  facet normal -0.77715 0.629316 0
    outer loop
      vertex -6.87664 4.99617 0
      vertex -6.31673 5.68761 6
      vertex -6.31673 5.68761 0
    endloop
  endfacet
  facet normal -0.77715 0.629316 0
    outer loop
      vertex -6.31673 5.68761 6
      vertex -6.87664 4.99617 0
      vertex -6.87664 4.99617 6
    endloop
  endfacet
  facet normal -0.453989 0.891007 0
    outer loop
      vertex -3.45726 7.76514 0
      vertex -4.25 7.36122 6
      vertex -3.45726 7.76514 6
    endloop
  endfacet
  facet normal -0.453989 0.891007 0
    outer loop
      vertex -4.25 7.36122 6
      vertex -3.45726 7.76514 0
      vertex -4.25 7.36122 0
    endloop
  endfacet
  facet normal 0.891007 -0.453989 0
    outer loop
      vertex 7.36122 -4.25 6
      vertex 7.76514 -3.45726 0
      vertex 7.76514 -3.45726 6
    endloop
  endfacet
  facet normal 0.891007 -0.453989 0
    outer loop
      vertex 7.76514 -3.45726 0
      vertex 7.36122 -4.25 6
      vertex 7.36122 -4.25 0
    endloop
  endfacet
  facet normal 0.258816 -0.965927 0
    outer loop
      vertex 1.76725 -8.31425 0
      vertex 2.62664 -8.08398 6
      vertex 1.76725 -8.31425 6
    endloop
  endfacet
  facet normal 0.258816 -0.965927 0
    outer loop
      vertex 2.62664 -8.08398 6
      vertex 1.76725 -8.31425 0
      vertex 2.62664 -8.08398 0
    endloop
  endfacet
  facet normal 0.707107 -0.707107 0
    outer loop
      vertex 5.68761 -6.31673 6
      vertex 6.31673 -5.68761 0
      vertex 6.31673 -5.68761 6
    endloop
  endfacet
  facet normal 0.707107 -0.707107 0
    outer loop
      vertex 6.31673 -5.68761 0
      vertex 5.68761 -6.31673 6
      vertex 5.68761 -6.31673 0
    endloop
  endfacet
  facet normal 0.965927 -0.258816 0
    outer loop
      vertex 8.08398 -2.62664 6
      vertex 8.31425 -1.76725 0
      vertex 8.31425 -1.76725 6
    endloop
  endfacet
  facet normal 0.965927 -0.258816 0
    outer loop
      vertex 8.31425 -1.76725 0
      vertex 8.08398 -2.62664 6
      vertex 8.08398 -2.62664 0
    endloop
  endfacet
  facet normal -0.358363 -0.933582 0
    outer loop
      vertex -3.45726 -7.76514 0
      vertex -2.62664 -8.08398 6
      vertex -3.45726 -7.76514 6
    endloop
  endfacet
  facet normal -0.358363 -0.933582 -0
    outer loop
      vertex -2.62664 -8.08398 6
      vertex -3.45726 -7.76514 0
      vertex -2.62664 -8.08398 0
    endloop
  endfacet
  facet normal -0.544648 -0.838665 0
    outer loop
      vertex -4.99617 -6.87664 0
      vertex -4.25 -7.36122 6
      vertex -4.99617 -6.87664 6
    endloop
  endfacet
  facet normal -0.544648 -0.838665 -0
    outer loop
      vertex -4.25 -7.36122 6
      vertex -4.99617 -6.87664 0
      vertex -4.25 -7.36122 0
    endloop
  endfacet
  facet normal -0.891007 -0.453989 0
    outer loop
      vertex -7.36122 -4.25 0
      vertex -7.76514 -3.45726 6
      vertex -7.76514 -3.45726 0
    endloop
  endfacet
  facet normal -0.891007 -0.453989 0
    outer loop
      vertex -7.76514 -3.45726 6
      vertex -7.36122 -4.25 0
      vertex -7.36122 -4.25 6
    endloop
  endfacet
  facet normal 0.891007 0.453989 0
    outer loop
      vertex 7.76514 3.45726 6
      vertex 7.36122 4.25 0
      vertex 7.36122 4.25 6
    endloop
  endfacet
  facet normal 0.891007 0.453989 0
    outer loop
      vertex 7.36122 4.25 0
      vertex 7.76514 3.45726 6
      vertex 7.76514 3.45726 0
    endloop
  endfacet
  facet normal 0.838665 0.544648 0
    outer loop
      vertex 7.36122 4.25 6
      vertex 6.87664 4.99617 0
      vertex 6.87664 4.99617 6
    endloop
  endfacet
  facet normal 0.838665 0.544648 0
    outer loop
      vertex 6.87664 4.99617 0
      vertex 7.36122 4.25 6
      vertex 7.36122 4.25 0
    endloop
  endfacet
  facet normal 0.77715 0.629316 0
    outer loop
      vertex 6.87664 4.99617 6
      vertex 6.31673 5.68761 0
      vertex 6.31673 5.68761 6
    endloop
  endfacet
  facet normal 0.77715 0.629316 0
    outer loop
      vertex 6.31673 5.68761 0
      vertex 6.87664 4.99617 6
      vertex 6.87664 4.99617 0
    endloop
  endfacet
  facet normal 0.258816 0.965927 -0
    outer loop
      vertex 2.62664 8.08398 0
      vertex 1.76725 8.31425 6
      vertex 2.62664 8.08398 6
    endloop
  endfacet
  facet normal 0.258816 0.965927 0
    outer loop
      vertex 1.76725 8.31425 6
      vertex 2.62664 8.08398 0
      vertex 1.76725 8.31425 0
    endloop
  endfacet
  facet normal 0.544648 0.838665 -0
    outer loop
      vertex 4.99617 6.87664 0
      vertex 4.25 7.36122 6
      vertex 4.99617 6.87664 6
    endloop
  endfacet
  facet normal 0.544648 0.838665 0
    outer loop
      vertex 4.25 7.36122 6
      vertex 4.99617 6.87664 0
      vertex 4.25 7.36122 0
    endloop
  endfacet
  facet normal -0.891007 0.453989 0
    outer loop
      vertex -7.76514 3.45726 0
      vertex -7.36122 4.25 6
      vertex -7.36122 4.25 0
    endloop
  endfacet
  facet normal -0.891007 0.453989 0
    outer loop
      vertex -7.36122 4.25 6
      vertex -7.76514 3.45726 0
      vertex -7.76514 3.45726 6
    endloop
  endfacet
  facet normal -0.965927 0.258816 0
    outer loop
      vertex -8.31425 1.76725 0
      vertex -8.08398 2.62664 6
      vertex -8.08398 2.62664 0
    endloop
  endfacet
  facet normal -0.965927 0.258816 0
    outer loop
      vertex -8.08398 2.62664 6
      vertex -8.31425 1.76725 0
      vertex -8.31425 1.76725 6
    endloop
  endfacet
  facet normal -0.0523316 0.99863 0
    outer loop
      vertex 0 8.5 0
      vertex -0.888492 8.45344 6
      vertex 0 8.5 6
    endloop
  endfacet
  facet normal -0.0523316 0.99863 0
    outer loop
      vertex -0.888492 8.45344 6
      vertex 0 8.5 0
      vertex -0.888492 8.45344 0
    endloop
  endfacet
  facet normal -0.156444 0.987687 0
    outer loop
      vertex -0.888492 8.45344 0
      vertex -1.76725 8.31425 6
      vertex -0.888492 8.45344 6
    endloop
  endfacet
  facet normal -0.156444 0.987687 0
    outer loop
      vertex -1.76725 8.31425 6
      vertex -0.888492 8.45344 0
      vertex -1.76725 8.31425 0
    endloop
  endfacet
  facet normal 0.0523316 -0.99863 0
    outer loop
      vertex 0 -8.5 0
      vertex 0.888492 -8.45344 6
      vertex 0 -8.5 6
    endloop
  endfacet
  facet normal 0.0523316 -0.99863 0
    outer loop
      vertex 0.888492 -8.45344 6
      vertex 0 -8.5 0
      vertex 0.888492 -8.45344 0
    endloop
  endfacet
  facet normal 0.156444 -0.987687 0
    outer loop
      vertex 0.888492 -8.45344 0
      vertex 1.76725 -8.31425 6
      vertex 0.888492 -8.45344 6
    endloop
  endfacet
  facet normal 0.156444 -0.987687 0
    outer loop
      vertex 1.76725 -8.31425 6
      vertex 0.888492 -8.45344 0
      vertex 1.76725 -8.31425 0
    endloop
  endfacet
  facet normal 0.453989 -0.891007 0
    outer loop
      vertex 3.45726 -7.76514 0
      vertex 4.25 -7.36122 6
      vertex 3.45726 -7.76514 6
    endloop
  endfacet
  facet normal 0.453989 -0.891007 0
    outer loop
      vertex 4.25 -7.36122 6
      vertex 3.45726 -7.76514 0
      vertex 4.25 -7.36122 0
    endloop
  endfacet
  facet normal 0.629316 -0.77715 0
    outer loop
      vertex 4.99617 -6.87664 0
      vertex 5.68761 -6.31673 6
      vertex 4.99617 -6.87664 6
    endloop
  endfacet
  facet normal 0.629316 -0.77715 0
    outer loop
      vertex 5.68761 -6.31673 6
      vertex 4.99617 -6.87664 0
      vertex 5.68761 -6.31673 0
    endloop
  endfacet
  facet normal 0.77715 -0.629316 0
    outer loop
      vertex 6.31673 -5.68761 6
      vertex 6.87664 -4.99617 0
      vertex 6.87664 -4.99617 6
    endloop
  endfacet
  facet normal 0.77715 -0.629316 0
    outer loop
      vertex 6.87664 -4.99617 0
      vertex 6.31673 -5.68761 6
      vertex 6.31673 -5.68761 0
    endloop
  endfacet
  facet normal 0.838665 -0.544648 0
    outer loop
      vertex 6.87664 -4.99617 6
      vertex 7.36122 -4.25 0
      vertex 7.36122 -4.25 6
    endloop
  endfacet
  facet normal 0.838665 -0.544648 0
    outer loop
      vertex 7.36122 -4.25 0
      vertex 6.87664 -4.99617 6
      vertex 6.87664 -4.99617 0
    endloop
  endfacet
  facet normal -0.156444 -0.987687 0
    outer loop
      vertex -1.76725 -8.31425 0
      vertex -0.888492 -8.45344 6
      vertex -1.76725 -8.31425 6
    endloop
  endfacet
  facet normal -0.156444 -0.987687 -0
    outer loop
      vertex -0.888492 -8.45344 6
      vertex -1.76725 -8.31425 0
      vertex -0.888492 -8.45344 0
    endloop
  endfacet
  facet normal -0.707107 -0.707107 0
    outer loop
      vertex -5.68761 -6.31673 0
      vertex -6.31673 -5.68761 6
      vertex -6.31673 -5.68761 0
    endloop
  endfacet
  facet normal -0.707107 -0.707107 0
    outer loop
      vertex -6.31673 -5.68761 6
      vertex -5.68761 -6.31673 0
      vertex -5.68761 -6.31673 6
    endloop
  endfacet
  facet normal -0.0523316 -0.99863 0
    outer loop
      vertex -0.888492 -8.45344 0
      vertex 0 -8.5 6
      vertex -0.888492 -8.45344 6
    endloop
  endfacet
  facet normal -0.0523316 -0.99863 -0
    outer loop
      vertex 0 -8.5 6
      vertex -0.888492 -8.45344 0
      vertex 0 -8.5 0
    endloop
  endfacet
  facet normal -0.629316 -0.77715 0
    outer loop
      vertex -5.68761 -6.31673 0
      vertex -4.99617 -6.87664 6
      vertex -5.68761 -6.31673 6
    endloop
  endfacet
  facet normal -0.629316 -0.77715 -0
    outer loop
      vertex -4.99617 -6.87664 6
      vertex -5.68761 -6.31673 0
      vertex -4.99617 -6.87664 0
    endloop
  endfacet
  facet normal -0.77715 -0.629316 0
    outer loop
      vertex -6.31673 -5.68761 0
      vertex -6.87664 -4.99617 6
      vertex -6.87664 -4.99617 0
    endloop
  endfacet
  facet normal -0.77715 -0.629316 0
    outer loop
      vertex -6.87664 -4.99617 6
      vertex -6.31673 -5.68761 0
      vertex -6.31673 -5.68761 6
    endloop
  endfacet
  facet normal -0.965927 -0.258816 0
    outer loop
      vertex -8.08398 -2.62664 0
      vertex -8.31425 -1.76725 6
      vertex -8.31425 -1.76725 0
    endloop
  endfacet
  facet normal -0.965927 -0.258816 0
    outer loop
      vertex -8.31425 -1.76725 6
      vertex -8.08398 -2.62664 0
      vertex -8.08398 -2.62664 6
    endloop
  endfacet
  facet normal -0.99863 -0.0523316 0
    outer loop
      vertex -8.45344 -0.888492 0
      vertex -8.5 0 6
      vertex -8.5 0 0
    endloop
  endfacet
  facet normal -0.99863 -0.0523316 0
    outer loop
      vertex -8.5 0 6
      vertex -8.45344 -0.888492 0
      vertex -8.45344 -0.888492 6
    endloop
  endfacet
  facet normal 0 0 -1
    outer loop
      vertex 8 0 0
      vertex 8.5 0 0
      vertex 8.45344 -0.888492 0
    endloop
  endfacet
  facet normal 0 0 -1
    outer loop
      vertex 7.95617 -0.836227 0
      vertex 8.45344 -0.888492 0
      vertex 8.31425 -1.76725 0
    endloop
  endfacet
  facet normal 0 0 -1
    outer loop
      vertex 8.5 0 0
      vertex 8 0 0
      vertex 8.45344 0.888492 0
    endloop
  endfacet
  facet normal 0 0 -1
    outer loop
      vertex 7.82518 -1.66329 0
      vertex 8.31425 -1.76725 0
      vertex 8.08398 -2.62664 0
    endloop
  endfacet
  facet normal 0 0 -1
    outer loop
      vertex 7.95617 0.836227 0
      vertex 8.45344 0.888492 0
      vertex 8 0 0
    endloop
  endfacet
  facet normal -0 0 -1
    outer loop
      vertex 8.45344 0.888492 0
      vertex 7.95617 0.836227 0
      vertex 8.31425 1.76725 0
    endloop
  endfacet
  facet normal 0 0 -1
    outer loop
      vertex 8.45344 -0.888492 0
      vertex 7.95617 -0.836227 0
      vertex 8 0 0
    endloop
  endfacet
  facet normal 0 0 -1
    outer loop
      vertex 8.31425 -1.76725 0
      vertex 7.82518 -1.66329 0
      vertex 7.95617 -0.836227 0
    endloop
  endfacet
  facet normal 0 0 -1
    outer loop
      vertex 7.60845 -2.47214 0
      vertex 8.08398 -2.62664 0
      vertex 7.76514 -3.45726 0
    endloop
  endfacet
  facet normal 0 0 -1
    outer loop
      vertex 8.08398 -2.62664 0
      vertex 7.60845 -2.47214 0
      vertex 7.82518 -1.66329 0
    endloop
  endfacet
  facet normal 0 0 -1
    outer loop
      vertex 7.30836 -3.25389 0
      vertex 7.76514 -3.45726 0
      vertex 7.36122 -4.25 0
    endloop
  endfacet
  facet normal 0 0 -1
    outer loop
      vertex 7.76514 -3.45726 0
      vertex 7.30836 -3.25389 0
      vertex 7.60845 -2.47214 0
    endloop
  endfacet
  facet normal 0 0 -1
    outer loop
      vertex 7.36122 -4.25 0
      vertex 6.9282 -4 0
      vertex 7.30836 -3.25389 0
    endloop
  endfacet
  facet normal 0 0 -1
    outer loop
      vertex 6.87664 -4.99617 0
      vertex 6.9282 -4 0
      vertex 7.36122 -4.25 0
    endloop
  endfacet
  facet normal 0 0 -1
    outer loop
      vertex 6.87664 -4.99617 0
      vertex 6.47214 -4.70228 0
      vertex 6.9282 -4 0
    endloop
  endfacet
  facet normal 0 0 -1
    outer loop
      vertex 6.31673 -5.68761 0
      vertex 6.47214 -4.70228 0
      vertex 6.87664 -4.99617 0
    endloop
  endfacet
  facet normal 0 0 -1
    outer loop
      vertex 6.31673 -5.68761 0
      vertex 5.94516 -5.35304 0
      vertex 6.47214 -4.70228 0
    endloop
  endfacet
  facet normal 0 0 -1
    outer loop
      vertex 5.68761 -6.31673 0
      vertex 5.94516 -5.35304 0
      vertex 6.31673 -5.68761 0
    endloop
  endfacet
  facet normal 0 0 -1
    outer loop
      vertex 5.68761 -6.31673 0
      vertex 5.35304 -5.94516 0
      vertex 5.94516 -5.35304 0
    endloop
  endfacet
  facet normal 0 0 -1
    outer loop
      vertex 4.99617 -6.87664 0
      vertex 5.35304 -5.94516 0
      vertex 5.68761 -6.31673 0
    endloop
  endfacet
  facet normal 0 0 -1
    outer loop
      vertex 4.99617 -6.87664 0
      vertex 4.70228 -6.47214 0
      vertex 5.35304 -5.94516 0
    endloop
  endfacet
  facet normal 0 0 -1
    outer loop
      vertex 4.25 -7.36122 0
      vertex 4.70228 -6.47214 0
      vertex 4.99617 -6.87664 0
    endloop
  endfacet
  facet normal 0 0 -1
    outer loop
      vertex 4.25 -7.36122 0
      vertex 4 -6.9282 0
      vertex 4.70228 -6.47214 0
    endloop
  endfacet
  facet normal 0 0 -1
    outer loop
      vertex 3.45726 -7.76514 0
      vertex 4 -6.9282 0
      vertex 4.25 -7.36122 0
    endloop
  endfacet
  facet normal 0 0 -1
    outer loop
      vertex 3.45726 -7.76514 0
      vertex 3.25389 -7.30836 0
      vertex 4 -6.9282 0
    endloop
  endfacet
  facet normal 0 0 -1
    outer loop
      vertex 2.62664 -8.08398 0
      vertex 3.25389 -7.30836 0
      vertex 3.45726 -7.76514 0
    endloop
  endfacet
  facet normal 0 0 -1
    outer loop
      vertex 2.62664 -8.08398 0
      vertex 2.47214 -7.60845 0
      vertex 3.25389 -7.30836 0
    endloop
  endfacet
  facet normal 0 0 -1
    outer loop
      vertex 1.76725 -8.31425 0
      vertex 2.47214 -7.60845 0
      vertex 2.62664 -8.08398 0
    endloop
  endfacet
  facet normal 0 0 -1
    outer loop
      vertex 1.76725 -8.31425 0
      vertex 1.66329 -7.82518 0
      vertex 2.47214 -7.60845 0
    endloop
  endfacet
  facet normal 0 0 -1
    outer loop
      vertex 0.888492 -8.45344 0
      vertex 1.66329 -7.82518 0
      vertex 1.76725 -8.31425 0
    endloop
  endfacet
  facet normal 0 0 -1
    outer loop
      vertex 0.888492 -8.45344 0
      vertex 0.836227 -7.95617 0
      vertex 1.66329 -7.82518 0
    endloop
  endfacet
  facet normal 0 0 -1
    outer loop
      vertex 0 -8.5 0
      vertex 0.836227 -7.95617 0
      vertex 0.888492 -8.45344 0
    endloop
  endfacet
  facet normal 0 0 -1
    outer loop
      vertex 0 -8.5 0
      vertex 0 -8 0
      vertex 0.836227 -7.95617 0
    endloop
  endfacet
  facet normal 0 0 -1
    outer loop
      vertex 0 -8.5 0
      vertex -0.836227 -7.95617 0
      vertex 0 -8 0
    endloop
  endfacet
  facet normal 0 0 -1
    outer loop
      vertex -0.888492 -8.45344 0
      vertex -0.836227 -7.95617 0
      vertex 0 -8.5 0
    endloop
  endfacet
  facet normal 0 0 -1
    outer loop
      vertex -0.888492 -8.45344 0
      vertex -1.66329 -7.82518 0
      vertex -0.836227 -7.95617 0
    endloop
  endfacet
  facet normal 0 0 -1
    outer loop
      vertex -1.76725 -8.31425 0
      vertex -1.66329 -7.82518 0
      vertex -0.888492 -8.45344 0
    endloop
  endfacet
  facet normal 0 0 -1
    outer loop
      vertex -1.76725 -8.31425 0
      vertex -2.47214 -7.60845 0
      vertex -1.66329 -7.82518 0
    endloop
  endfacet
  facet normal 0 0 -1
    outer loop
      vertex -2.62664 -8.08398 0
      vertex -2.47214 -7.60845 0
      vertex -1.76725 -8.31425 0
    endloop
  endfacet
  facet normal 0 0 -1
    outer loop
      vertex -2.62664 -8.08398 0
      vertex -3.25389 -7.30836 0
      vertex -2.47214 -7.60845 0
    endloop
  endfacet
  facet normal 0 0 -1
    outer loop
      vertex -3.45726 -7.76514 0
      vertex -3.25389 -7.30836 0
      vertex -2.62664 -8.08398 0
    endloop
  endfacet
  facet normal 0 0 -1
    outer loop
      vertex -3.45726 -7.76514 0
      vertex -4 -6.9282 0
      vertex -3.25389 -7.30836 0
    endloop
  endfacet
  facet normal 0 0 -1
    outer loop
      vertex -4.25 -7.36122 0
      vertex -4 -6.9282 0
      vertex -3.45726 -7.76514 0
    endloop
  endfacet
  facet normal 0 0 -1
    outer loop
      vertex -4.25 -7.36122 0
      vertex -4.70228 -6.47214 0
      vertex -4 -6.9282 0
    endloop
  endfacet
  facet normal 0 0 -1
    outer loop
      vertex -4.99617 -6.87664 0
      vertex -4.70228 -6.47214 0
      vertex -4.25 -7.36122 0
    endloop
  endfacet
  facet normal 0 0 -1
    outer loop
      vertex -4.99617 -6.87664 0
      vertex -5.35304 -5.94516 0
      vertex -4.70228 -6.47214 0
    endloop
  endfacet
  facet normal 0 0 -1
    outer loop
      vertex -5.68761 -6.31673 0
      vertex -5.35304 -5.94516 0
      vertex -4.99617 -6.87664 0
    endloop
  endfacet
  facet normal 0 0 -1
    outer loop
      vertex -5.68761 -6.31673 0
      vertex -5.94516 -5.35304 0
      vertex -5.35304 -5.94516 0
    endloop
  endfacet
  facet normal 0 0 -1
    outer loop
      vertex -6.31673 -5.68761 0
      vertex -5.94516 -5.35304 0
      vertex -5.68761 -6.31673 0
    endloop
  endfacet
  facet normal 0 0 -1
    outer loop
      vertex -6.31673 -5.68761 0
      vertex -6.47214 -4.70228 0
      vertex -5.94516 -5.35304 0
    endloop
  endfacet
  facet normal 0 0 -1
    outer loop
      vertex -6.87664 -4.99617 0
      vertex -6.47214 -4.70228 0
      vertex -6.31673 -5.68761 0
    endloop
  endfacet
  facet normal 0 0 -1
    outer loop
      vertex -6.87664 -4.99617 0
      vertex -6.9282 -4 0
      vertex -6.47214 -4.70228 0
    endloop
  endfacet
  facet normal 0 0 -1
    outer loop
      vertex -7.36122 -4.25 0
      vertex -6.9282 -4 0
      vertex -6.87664 -4.99617 0
    endloop
  endfacet
  facet normal -0 0 -1
    outer loop
      vertex -6.9282 -4 0
      vertex -7.36122 -4.25 0
      vertex -7.30836 -3.25389 0
    endloop
  endfacet
  facet normal 0 0 -1
    outer loop
      vertex -7.76514 -3.45726 0
      vertex -7.30836 -3.25389 0
      vertex -7.36122 -4.25 0
    endloop
  endfacet
  facet normal -0 0 -1
    outer loop
      vertex -7.30836 -3.25389 0
      vertex -7.76514 -3.45726 0
      vertex -7.60845 -2.47214 0
    endloop
  endfacet
  facet normal 0 0 -1
    outer loop
      vertex -8.08398 -2.62664 0
      vertex -7.60845 -2.47214 0
      vertex -7.76514 -3.45726 0
    endloop
  endfacet
  facet normal -0 0 -1
    outer loop
      vertex -7.60845 -2.47214 0
      vertex -8.08398 -2.62664 0
      vertex -7.82518 -1.66329 0
    endloop
  endfacet
  facet normal -0 0 -1
    outer loop
      vertex -7.82518 -1.66329 0
      vertex -8.31425 -1.76725 0
      vertex -7.95617 -0.836227 0
    endloop
  endfacet
  facet normal 0 0 -1
    outer loop
      vertex -8.31425 -1.76725 0
      vertex -7.82518 -1.66329 0
      vertex -8.08398 -2.62664 0
    endloop
  endfacet
  facet normal 0 0 -1
    outer loop
      vertex 7.82518 1.66329 0
      vertex 8.31425 1.76725 0
      vertex 7.95617 0.836227 0
    endloop
  endfacet
  facet normal -0 0 -1
    outer loop
      vertex 8.31425 1.76725 0
      vertex 7.82518 1.66329 0
      vertex 8.08398 2.62664 0
    endloop
  endfacet
  facet normal 0 0 -1
    outer loop
      vertex 7.60845 2.47214 0
      vertex 8.08398 2.62664 0
      vertex 7.82518 1.66329 0
    endloop
  endfacet
  facet normal -0 0 -1
    outer loop
      vertex 8.08398 2.62664 0
      vertex 7.60845 2.47214 0
      vertex 7.76514 3.45726 0
    endloop
  endfacet
  facet normal 0 0 -1
    outer loop
      vertex 7.30836 3.25389 0
      vertex 7.76514 3.45726 0
      vertex 7.60845 2.47214 0
    endloop
  endfacet
  facet normal -0 0 -1
    outer loop
      vertex 7.76514 3.45726 0
      vertex 7.30836 3.25389 0
      vertex 7.36122 4.25 0
    endloop
  endfacet
  facet normal 0 0 -1
    outer loop
      vertex 6.9282 4 0
      vertex 7.36122 4.25 0
      vertex 7.30836 3.25389 0
    endloop
  endfacet
  facet normal 0 0 -1
    outer loop
      vertex 6.9282 4 0
      vertex 6.87664 4.99617 0
      vertex 7.36122 4.25 0
    endloop
  endfacet
  facet normal 0 0 -1
    outer loop
      vertex 6.47214 4.70228 0
      vertex 6.87664 4.99617 0
      vertex 6.9282 4 0
    endloop
  endfacet
  facet normal 0 0 -1
    outer loop
      vertex 6.47214 4.70228 0
      vertex 6.31673 5.68761 0
      vertex 6.87664 4.99617 0
    endloop
  endfacet
  facet normal 0 0 -1
    outer loop
      vertex 5.94516 5.35304 0
      vertex 6.31673 5.68761 0
      vertex 6.47214 4.70228 0
    endloop
  endfacet
  facet normal 0 0 -1
    outer loop
      vertex 5.94516 5.35304 0
      vertex 5.68761 6.31673 0
      vertex 6.31673 5.68761 0
    endloop
  endfacet
  facet normal 0 0 -1
    outer loop
      vertex 5.35304 5.94516 0
      vertex 5.68761 6.31673 0
      vertex 5.94516 5.35304 0
    endloop
  endfacet
  facet normal 0 0 -1
    outer loop
      vertex 5.35304 5.94516 0
      vertex 4.99617 6.87664 0
      vertex 5.68761 6.31673 0
    endloop
  endfacet
  facet normal 0 0 -1
    outer loop
      vertex 4.70228 6.47214 0
      vertex 4.99617 6.87664 0
      vertex 5.35304 5.94516 0
    endloop
  endfacet
  facet normal 0 0 -1
    outer loop
      vertex 4.70228 6.47214 0
      vertex 4.25 7.36122 0
      vertex 4.99617 6.87664 0
    endloop
  endfacet
  facet normal 0 0 -1
    outer loop
      vertex 4 6.9282 0
      vertex 4.25 7.36122 0
      vertex 4.70228 6.47214 0
    endloop
  endfacet
  facet normal 0 0 -1
    outer loop
      vertex 4 6.9282 0
      vertex 3.45726 7.76514 0
      vertex 4.25 7.36122 0
    endloop
  endfacet
  facet normal 0 0 -1
    outer loop
      vertex 3.25389 7.30836 0
      vertex 3.45726 7.76514 0
      vertex 4 6.9282 0
    endloop
  endfacet
  facet normal 0 0 -1
    outer loop
      vertex 3.25389 7.30836 0
      vertex 2.62664 8.08398 0
      vertex 3.45726 7.76514 0
    endloop
  endfacet
  facet normal 0 0 -1
    outer loop
      vertex 2.47214 7.60845 0
      vertex 2.62664 8.08398 0
      vertex 3.25389 7.30836 0
    endloop
  endfacet
  facet normal 0 0 -1
    outer loop
      vertex 2.47214 7.60845 0
      vertex 1.76725 8.31425 0
      vertex 2.62664 8.08398 0
    endloop
  endfacet
  facet normal 0 0 -1
    outer loop
      vertex 1.66329 7.82518 0
      vertex 1.76725 8.31425 0
      vertex 2.47214 7.60845 0
    endloop
  endfacet
  facet normal 0 0 -1
    outer loop
      vertex 1.66329 7.82518 0
      vertex 0.888492 8.45344 0
      vertex 1.76725 8.31425 0
    endloop
  endfacet
  facet normal 0 0 -1
    outer loop
      vertex 0.836227 7.95617 0
      vertex 0.888492 8.45344 0
      vertex 1.66329 7.82518 0
    endloop
  endfacet
  facet normal 0 0 -1
    outer loop
      vertex 0 8 0
      vertex 0.888492 8.45344 0
      vertex 0.836227 7.95617 0
    endloop
  endfacet
  facet normal 0 0 -1
    outer loop
      vertex 0 8 0
      vertex 0 8.5 0
      vertex 0.888492 8.45344 0
    endloop
  endfacet
  facet normal 0 0 -1
    outer loop
      vertex -0.836227 7.95617 0
      vertex 0 8.5 0
      vertex 0 8 0
    endloop
  endfacet
  facet normal 0 0 -1
    outer loop
      vertex -0.836227 7.95617 0
      vertex -0.888492 8.45344 0
      vertex 0 8.5 0
    endloop
  endfacet
  facet normal 0 0 -1
    outer loop
      vertex -1.66329 7.82518 0
      vertex -0.888492 8.45344 0
      vertex -0.836227 7.95617 0
    endloop
  endfacet
  facet normal 0 0 -1
    outer loop
      vertex -1.66329 7.82518 0
      vertex -1.76725 8.31425 0
      vertex -0.888492 8.45344 0
    endloop
  endfacet
  facet normal 0 0 -1
    outer loop
      vertex -2.47214 7.60845 0
      vertex -1.76725 8.31425 0
      vertex -1.66329 7.82518 0
    endloop
  endfacet
  facet normal 0 0 -1
    outer loop
      vertex -2.47214 7.60845 0
      vertex -2.62664 8.08398 0
      vertex -1.76725 8.31425 0
    endloop
  endfacet
  facet normal 0 0 -1
    outer loop
      vertex -3.25389 7.30836 0
      vertex -2.62664 8.08398 0
      vertex -2.47214 7.60845 0
    endloop
  endfacet
  facet normal 0 0 -1
    outer loop
      vertex -3.25389 7.30836 0
      vertex -3.45726 7.76514 0
      vertex -2.62664 8.08398 0
    endloop
  endfacet
  facet normal 0 0 -1
    outer loop
      vertex -4 6.9282 0
      vertex -3.45726 7.76514 0
      vertex -3.25389 7.30836 0
    endloop
  endfacet
  facet normal 0 0 -1
    outer loop
      vertex -4 6.9282 0
      vertex -4.25 7.36122 0
      vertex -3.45726 7.76514 0
    endloop
  endfacet
  facet normal 0 0 -1
    outer loop
      vertex -4.70228 6.47214 0
      vertex -4.25 7.36122 0
      vertex -4 6.9282 0
    endloop
  endfacet
  facet normal 0 0 -1
    outer loop
      vertex -4.70228 6.47214 0
      vertex -4.99617 6.87664 0
      vertex -4.25 7.36122 0
    endloop
  endfacet
  facet normal 0 0 -1
    outer loop
      vertex -5.35304 5.94516 0
      vertex -4.99617 6.87664 0
      vertex -4.70228 6.47214 0
    endloop
  endfacet
  facet normal 0 0 -1
    outer loop
      vertex -5.35304 5.94516 0
      vertex -5.68761 6.31673 0
      vertex -4.99617 6.87664 0
    endloop
  endfacet
  facet normal 0 0 -1
    outer loop
      vertex -5.94516 5.35304 0
      vertex -5.68761 6.31673 0
      vertex -5.35304 5.94516 0
    endloop
  endfacet
  facet normal 0 0 -1
    outer loop
      vertex -5.94516 5.35304 0
      vertex -6.31673 5.68761 0
      vertex -5.68761 6.31673 0
    endloop
  endfacet
  facet normal 0 0 -1
    outer loop
      vertex -6.47214 4.70228 0
      vertex -6.31673 5.68761 0
      vertex -5.94516 5.35304 0
    endloop
  endfacet
  facet normal 0 0 -1
    outer loop
      vertex -6.47214 4.70228 0
      vertex -6.87664 4.99617 0
      vertex -6.31673 5.68761 0
    endloop
  endfacet
  facet normal 0 0 -1
    outer loop
      vertex -6.9282 4 0
      vertex -6.87664 4.99617 0
      vertex -6.47214 4.70228 0
    endloop
  endfacet
  facet normal 0 0 -1
    outer loop
      vertex -7.36122 4.25 0
      vertex -6.9282 4 0
      vertex -7.30836 3.25389 0
    endloop
  endfacet
  facet normal 0 0 -1
    outer loop
      vertex -6.9282 4 0
      vertex -7.36122 4.25 0
      vertex -6.87664 4.99617 0
    endloop
  endfacet
  facet normal 0 0 -1
    outer loop
      vertex -7.76514 3.45726 0
      vertex -7.30836 3.25389 0
      vertex -7.60845 2.47214 0
    endloop
  endfacet
  facet normal 0 0 -1
    outer loop
      vertex -7.30836 3.25389 0
      vertex -7.76514 3.45726 0
      vertex -7.36122 4.25 0
    endloop
  endfacet
  facet normal 0 0 -1
    outer loop
      vertex -8.08398 2.62664 0
      vertex -7.60845 2.47214 0
      vertex -7.82518 1.66329 0
    endloop
  endfacet
  facet normal 0 0 -1
    outer loop
      vertex -8.31425 1.76725 0
      vertex -7.82518 1.66329 0
      vertex -7.95617 0.836227 0
    endloop
  endfacet
  facet normal 0 0 -1
    outer loop
      vertex -7.60845 2.47214 0
      vertex -8.08398 2.62664 0
      vertex -7.76514 3.45726 0
    endloop
  endfacet
  facet normal 0 0 -1
    outer loop
      vertex -8.45344 0.888492 0
      vertex -7.95617 0.836227 0
      vertex -8 0 0
    endloop
  endfacet
  facet normal 0 0 -1
    outer loop
      vertex -8.45344 -0.888492 0
      vertex -7.95617 -0.836227 0
      vertex -8.31425 -1.76725 0
    endloop
  endfacet
  facet normal -0 0 -1
    outer loop
      vertex -7.95617 -0.836227 0
      vertex -8.45344 -0.888492 0
      vertex -8 0 0
    endloop
  endfacet
  facet normal 0 0 -1
    outer loop
      vertex -7.82518 1.66329 0
      vertex -8.31425 1.76725 0
      vertex -8.08398 2.62664 0
    endloop
  endfacet
  facet normal 0 0 -1
    outer loop
      vertex -8.5 0 0
      vertex -8 0 0
      vertex -8.45344 -0.888492 0
    endloop
  endfacet
  facet normal 0 0 -1
    outer loop
      vertex -7.95617 0.836227 0
      vertex -8.45344 0.888492 0
      vertex -8.31425 1.76725 0
    endloop
  endfacet
  facet normal 0 0 -1
    outer loop
      vertex -8 0 0
      vertex -8.5 0 0
      vertex -8.45344 0.888492 0
    endloop
  endfacet
  facet normal -0.933582 -0.358363 0
    outer loop
      vertex -7.76514 -3.45726 0
      vertex -8.08398 -2.62664 6
      vertex -8.08398 -2.62664 0
    endloop
  endfacet
  facet normal -0.933582 -0.358363 0
    outer loop
      vertex -8.08398 -2.62664 6
      vertex -7.76514 -3.45726 0
      vertex -7.76514 -3.45726 6
    endloop
  endfacet
  facet normal 0.987687 0.156444 0
    outer loop
      vertex 8.45344 0.888492 6
      vertex 8.31425 1.76725 0
      vertex 8.31425 1.76725 6
    endloop
  endfacet
  facet normal 0.987687 0.156444 0
    outer loop
      vertex 8.31425 1.76725 0
      vertex 8.45344 0.888492 6
      vertex 8.45344 0.888492 0
    endloop
  endfacet
  facet normal 0.156444 0.987687 -0
    outer loop
      vertex 1.76725 8.31425 0
      vertex 0.888492 8.45344 6
      vertex 1.76725 8.31425 6
    endloop
  endfacet
  facet normal 0.156444 0.987687 0
    outer loop
      vertex 0.888492 8.45344 6
      vertex 1.76725 8.31425 0
      vertex 0.888492 8.45344 0
    endloop
  endfacet
  facet normal 0.358363 0.933582 -0
    outer loop
      vertex 3.45726 7.76514 0
      vertex 2.62664 8.08398 6
      vertex 3.45726 7.76514 6
    endloop
  endfacet
  facet normal 0.358363 0.933582 0
    outer loop
      vertex 2.62664 8.08398 6
      vertex 3.45726 7.76514 0
      vertex 2.62664 8.08398 0
    endloop
  endfacet
  facet normal -0.707107 0.707107 0
    outer loop
      vertex -6.31673 5.68761 0
      vertex -5.68761 6.31673 6
      vertex -5.68761 6.31673 0
    endloop
  endfacet
  facet normal -0.707107 0.707107 0
    outer loop
      vertex -5.68761 6.31673 6
      vertex -6.31673 5.68761 0
      vertex -6.31673 5.68761 6
    endloop
  endfacet
  facet normal 0 0 1
    outer loop
      vertex 8 0 6
      vertex 8.5 0 6
      vertex 8.45344 0.888492 6
    endloop
  endfacet
  facet normal 0 0 1
    outer loop
      vertex 7.95617 0.836227 6
      vertex 8.45344 0.888492 6
      vertex 8.31425 1.76725 6
    endloop
  endfacet
  facet normal 0 0 1
    outer loop
      vertex 8.5 0 6
      vertex 8 0 6
      vertex 8.45344 -0.888492 6
    endloop
  endfacet
  facet normal 0 0 1
    outer loop
      vertex 7.82518 1.66329 6
      vertex 8.31425 1.76725 6
      vertex 8.08398 2.62664 6
    endloop
  endfacet
  facet normal -0 0 1
    outer loop
      vertex 7.95617 -0.836227 6
      vertex 8.45344 -0.888492 6
      vertex 8 0 6
    endloop
  endfacet
  facet normal 0 0 1
    outer loop
      vertex 8.45344 -0.888492 6
      vertex 7.95617 -0.836227 6
      vertex 8.31425 -1.76725 6
    endloop
  endfacet
  facet normal 0 0 1
    outer loop
      vertex 8.45344 0.888492 6
      vertex 7.95617 0.836227 6
      vertex 8 0 6
    endloop
  endfacet
  facet normal 0 0 1
    outer loop
      vertex 8.31425 1.76725 6
      vertex 7.82518 1.66329 6
      vertex 7.95617 0.836227 6
    endloop
  endfacet
  facet normal 0 0 1
    outer loop
      vertex 7.60845 2.47214 6
      vertex 8.08398 2.62664 6
      vertex 7.76514 3.45726 6
    endloop
  endfacet
  facet normal 0 0 1
    outer loop
      vertex 8.08398 2.62664 6
      vertex 7.60845 2.47214 6
      vertex 7.82518 1.66329 6
    endloop
  endfacet
  facet normal 0 0 1
    outer loop
      vertex 7.30836 3.25389 6
      vertex 7.76514 3.45726 6
      vertex 7.36122 4.25 6
    endloop
  endfacet
  facet normal 0 0 1
    outer loop
      vertex 7.76514 3.45726 6
      vertex 7.30836 3.25389 6
      vertex 7.60845 2.47214 6
    endloop
  endfacet
  facet normal 0 0 1
    outer loop
      vertex 7.36122 4.25 6
      vertex 6.9282 4 6
      vertex 7.30836 3.25389 6
    endloop
  endfacet
  facet normal 0 0 1
    outer loop
      vertex 6.87664 4.99617 6
      vertex 6.9282 4 6
      vertex 7.36122 4.25 6
    endloop
  endfacet
  facet normal 0 0 1
    outer loop
      vertex 6.87664 4.99617 6
      vertex 6.47214 4.70228 6
      vertex 6.9282 4 6
    endloop
  endfacet
  facet normal 0 0 1
    outer loop
      vertex 6.31673 5.68761 6
      vertex 6.47214 4.70228 6
      vertex 6.87664 4.99617 6
    endloop
  endfacet
  facet normal 0 0 1
    outer loop
      vertex 6.31673 5.68761 6
      vertex 5.94516 5.35304 6
      vertex 6.47214 4.70228 6
    endloop
  endfacet
  facet normal 0 0 1
    outer loop
      vertex 5.68761 6.31673 6
      vertex 5.94516 5.35304 6
      vertex 6.31673 5.68761 6
    endloop
  endfacet
  facet normal 0 0 1
    outer loop
      vertex 5.68761 6.31673 6
      vertex 5.35304 5.94516 6
      vertex 5.94516 5.35304 6
    endloop
  endfacet
  facet normal 0 0 1
    outer loop
      vertex 4.99617 6.87664 6
      vertex 5.35304 5.94516 6
      vertex 5.68761 6.31673 6
    endloop
  endfacet
  facet normal 0 0 1
    outer loop
      vertex 4.99617 6.87664 6
      vertex 4.70228 6.47214 6
      vertex 5.35304 5.94516 6
    endloop
  endfacet
  facet normal 0 0 1
    outer loop
      vertex 4.25 7.36122 6
      vertex 4.70228 6.47214 6
      vertex 4.99617 6.87664 6
    endloop
  endfacet
  facet normal 0 0 1
    outer loop
      vertex 4.25 7.36122 6
      vertex 4 6.9282 6
      vertex 4.70228 6.47214 6
    endloop
  endfacet
  facet normal 0 0 1
    outer loop
      vertex 3.45726 7.76514 6
      vertex 4 6.9282 6
      vertex 4.25 7.36122 6
    endloop
  endfacet
  facet normal 0 0 1
    outer loop
      vertex 3.45726 7.76514 6
      vertex 3.25389 7.30836 6
      vertex 4 6.9282 6
    endloop
  endfacet
  facet normal 0 0 1
    outer loop
      vertex 2.62664 8.08398 6
      vertex 3.25389 7.30836 6
      vertex 3.45726 7.76514 6
    endloop
  endfacet
  facet normal 0 0 1
    outer loop
      vertex 2.62664 8.08398 6
      vertex 2.47214 7.60845 6
      vertex 3.25389 7.30836 6
    endloop
  endfacet
  facet normal 0 0 1
    outer loop
      vertex 1.76725 8.31425 6
      vertex 2.47214 7.60845 6
      vertex 2.62664 8.08398 6
    endloop
  endfacet
  facet normal 0 0 1
    outer loop
      vertex 1.76725 8.31425 6
      vertex 1.66329 7.82518 6
      vertex 2.47214 7.60845 6
    endloop
  endfacet
  facet normal 0 0 1
    outer loop
      vertex 0.888492 8.45344 6
      vertex 1.66329 7.82518 6
      vertex 1.76725 8.31425 6
    endloop
  endfacet
  facet normal 0 0 1
    outer loop
      vertex 0.888492 8.45344 6
      vertex 0.836227 7.95617 6
      vertex 1.66329 7.82518 6
    endloop
  endfacet
  facet normal 0 0 1
    outer loop
      vertex 0 8.5 6
      vertex 0.836227 7.95617 6
      vertex 0.888492 8.45344 6
    endloop
  endfacet
  facet normal 0 0 1
    outer loop
      vertex 0 8.5 6
      vertex 0 8 6
      vertex 0.836227 7.95617 6
    endloop
  endfacet
  facet normal 0 0 1
    outer loop
      vertex 0 8.5 6
      vertex -0.836227 7.95617 6
      vertex 0 8 6
    endloop
  endfacet
  facet normal -0 0 1
    outer loop
      vertex -0.888492 8.45344 6
      vertex -0.836227 7.95617 6
      vertex 0 8.5 6
    endloop
  endfacet
  facet normal 0 0 1
    outer loop
      vertex -0.888492 8.45344 6
      vertex -1.66329 7.82518 6
      vertex -0.836227 7.95617 6
    endloop
  endfacet
  facet normal -0 0 1
    outer loop
      vertex -1.76725 8.31425 6
      vertex -1.66329 7.82518 6
      vertex -0.888492 8.45344 6
    endloop
  endfacet
  facet normal 0 0 1
    outer loop
      vertex -1.76725 8.31425 6
      vertex -2.47214 7.60845 6
      vertex -1.66329 7.82518 6
    endloop
  endfacet
  facet normal -0 0 1
    outer loop
      vertex -2.62664 8.08398 6
      vertex -2.47214 7.60845 6
      vertex -1.76725 8.31425 6
    endloop
  endfacet
  facet normal 0 0 1
    outer loop
      vertex -2.62664 8.08398 6
      vertex -3.25389 7.30836 6
      vertex -2.47214 7.60845 6
    endloop
  endfacet
  facet normal -0 0 1
    outer loop
      vertex -3.45726 7.76514 6
      vertex -3.25389 7.30836 6
      vertex -2.62664 8.08398 6
    endloop
  endfacet
  facet normal 0 0 1
    outer loop
      vertex -3.45726 7.76514 6
      vertex -4 6.9282 6
      vertex -3.25389 7.30836 6
    endloop
  endfacet
  facet normal -0 0 1
    outer loop
      vertex -4.25 7.36122 6
      vertex -4 6.9282 6
      vertex -3.45726 7.76514 6
    endloop
  endfacet
  facet normal 0 0 1
    outer loop
      vertex -4.25 7.36122 6
      vertex -4.70228 6.47214 6
      vertex -4 6.9282 6
    endloop
  endfacet
  facet normal -0 0 1
    outer loop
      vertex -4.99617 6.87664 6
      vertex -4.70228 6.47214 6
      vertex -4.25 7.36122 6
    endloop
  endfacet
  facet normal 0 0 1
    outer loop
      vertex -4.99617 6.87664 6
      vertex -5.35304 5.94516 6
      vertex -4.70228 6.47214 6
    endloop
  endfacet
  facet normal -0 0 1
    outer loop
      vertex -5.68761 6.31673 6
      vertex -5.35304 5.94516 6
      vertex -4.99617 6.87664 6
    endloop
  endfacet
  facet normal 0 0 1
    outer loop
      vertex -5.68761 6.31673 6
      vertex -5.94516 5.35304 6
      vertex -5.35304 5.94516 6
    endloop
  endfacet
  facet normal -0 0 1
    outer loop
      vertex -6.31673 5.68761 6
      vertex -5.94516 5.35304 6
      vertex -5.68761 6.31673 6
    endloop
  endfacet
  facet normal 0 0 1
    outer loop
      vertex -6.31673 5.68761 6
      vertex -6.47214 4.70228 6
      vertex -5.94516 5.35304 6
    endloop
  endfacet
  facet normal -0 0 1
    outer loop
      vertex -6.87664 4.99617 6
      vertex -6.47214 4.70228 6
      vertex -6.31673 5.68761 6
    endloop
  endfacet
  facet normal 0 0 1
    outer loop
      vertex -6.87664 4.99617 6
      vertex -6.9282 4 6
      vertex -6.47214 4.70228 6
    endloop
  endfacet
  facet normal -0 0 1
    outer loop
      vertex -7.36122 4.25 6
      vertex -6.9282 4 6
      vertex -6.87664 4.99617 6
    endloop
  endfacet
  facet normal 0 0 1
    outer loop
      vertex -6.9282 4 6
      vertex -7.36122 4.25 6
      vertex -7.30836 3.25389 6
    endloop
  endfacet
  facet normal -0 0 1
    outer loop
      vertex -7.76514 3.45726 6
      vertex -7.30836 3.25389 6
      vertex -7.36122 4.25 6
    endloop
  endfacet
  facet normal 0 0 1
    outer loop
      vertex -7.30836 3.25389 6
      vertex -7.76514 3.45726 6
      vertex -7.60845 2.47214 6
    endloop
  endfacet
  facet normal -0 0 1
    outer loop
      vertex -8.08398 2.62664 6
      vertex -7.60845 2.47214 6
      vertex -7.76514 3.45726 6
    endloop
  endfacet
  facet normal 0 0 1
    outer loop
      vertex -7.60845 2.47214 6
      vertex -8.08398 2.62664 6
      vertex -7.82518 1.66329 6
    endloop
  endfacet
  facet normal 0 0 1
    outer loop
      vertex -7.82518 1.66329 6
      vertex -8.31425 1.76725 6
      vertex -7.95617 0.836227 6
    endloop
  endfacet
  facet normal -0 0 1
    outer loop
      vertex -8.31425 1.76725 6
      vertex -7.82518 1.66329 6
      vertex -8.08398 2.62664 6
    endloop
  endfacet
  facet normal -0 0 1
    outer loop
      vertex 7.82518 -1.66329 6
      vertex 8.31425 -1.76725 6
      vertex 7.95617 -0.836227 6
    endloop
  endfacet
  facet normal 0 0 1
    outer loop
      vertex 8.31425 -1.76725 6
      vertex 7.82518 -1.66329 6
      vertex 8.08398 -2.62664 6
    endloop
  endfacet
  facet normal -0 0 1
    outer loop
      vertex 7.60845 -2.47214 6
      vertex 8.08398 -2.62664 6
      vertex 7.82518 -1.66329 6
    endloop
  endfacet
  facet normal 0 0 1
    outer loop
      vertex 8.08398 -2.62664 6
      vertex 7.60845 -2.47214 6
      vertex 7.76514 -3.45726 6
    endloop
  endfacet
  facet normal -0 0 1
    outer loop
      vertex 7.30836 -3.25389 6
      vertex 7.76514 -3.45726 6
      vertex 7.60845 -2.47214 6
    endloop
  endfacet
  facet normal 0 0 1
    outer loop
      vertex 7.76514 -3.45726 6
      vertex 7.30836 -3.25389 6
      vertex 7.36122 -4.25 6
    endloop
  endfacet
  facet normal -0 0 1
    outer loop
      vertex 6.9282 -4 6
      vertex 7.36122 -4.25 6
      vertex 7.30836 -3.25389 6
    endloop
  endfacet
  facet normal 0 0 1
    outer loop
      vertex 6.9282 -4 6
      vertex 6.87664 -4.99617 6
      vertex 7.36122 -4.25 6
    endloop
  endfacet
  facet normal -0 0 1
    outer loop
      vertex 6.47214 -4.70228 6
      vertex 6.87664 -4.99617 6
      vertex 6.9282 -4 6
    endloop
  endfacet
  facet normal 0 0 1
    outer loop
      vertex 6.47214 -4.70228 6
      vertex 6.31673 -5.68761 6
      vertex 6.87664 -4.99617 6
    endloop
  endfacet
  facet normal -0 0 1
    outer loop
      vertex 5.94516 -5.35304 6
      vertex 6.31673 -5.68761 6
      vertex 6.47214 -4.70228 6
    endloop
  endfacet
  facet normal 0 0 1
    outer loop
      vertex 5.94516 -5.35304 6
      vertex 5.68761 -6.31673 6
      vertex 6.31673 -5.68761 6
    endloop
  endfacet
  facet normal -0 0 1
    outer loop
      vertex 5.35304 -5.94516 6
      vertex 5.68761 -6.31673 6
      vertex 5.94516 -5.35304 6
    endloop
  endfacet
  facet normal 0 0 1
    outer loop
      vertex 5.35304 -5.94516 6
      vertex 4.99617 -6.87664 6
      vertex 5.68761 -6.31673 6
    endloop
  endfacet
  facet normal -0 0 1
    outer loop
      vertex 4.70228 -6.47214 6
      vertex 4.99617 -6.87664 6
      vertex 5.35304 -5.94516 6
    endloop
  endfacet
  facet normal 0 0 1
    outer loop
      vertex 4.70228 -6.47214 6
      vertex 4.25 -7.36122 6
      vertex 4.99617 -6.87664 6
    endloop
  endfacet
  facet normal -0 0 1
    outer loop
      vertex 4 -6.9282 6
      vertex 4.25 -7.36122 6
      vertex 4.70228 -6.47214 6
    endloop
  endfacet
  facet normal 0 0 1
    outer loop
      vertex 4 -6.9282 6
      vertex 3.45726 -7.76514 6
      vertex 4.25 -7.36122 6
    endloop
  endfacet
  facet normal -0 0 1
    outer loop
      vertex 3.25389 -7.30836 6
      vertex 3.45726 -7.76514 6
      vertex 4 -6.9282 6
    endloop
  endfacet
  facet normal 0 0 1
    outer loop
      vertex 3.25389 -7.30836 6
      vertex 2.62664 -8.08398 6
      vertex 3.45726 -7.76514 6
    endloop
  endfacet
  facet normal -0 0 1
    outer loop
      vertex 2.47214 -7.60845 6
      vertex 2.62664 -8.08398 6
      vertex 3.25389 -7.30836 6
    endloop
  endfacet
  facet normal 0 0 1
    outer loop
      vertex 2.47214 -7.60845 6
      vertex 1.76725 -8.31425 6
      vertex 2.62664 -8.08398 6
    endloop
  endfacet
  facet normal -0 0 1
    outer loop
      vertex 1.66329 -7.82518 6
      vertex 1.76725 -8.31425 6
      vertex 2.47214 -7.60845 6
    endloop
  endfacet
  facet normal 0 0 1
    outer loop
      vertex 1.66329 -7.82518 6
      vertex 0.888492 -8.45344 6
      vertex 1.76725 -8.31425 6
    endloop
  endfacet
  facet normal -0 0 1
    outer loop
      vertex 0.836227 -7.95617 6
      vertex 0.888492 -8.45344 6
      vertex 1.66329 -7.82518 6
    endloop
  endfacet
  facet normal -0 0 1
    outer loop
      vertex 0 -8 6
      vertex 0.888492 -8.45344 6
      vertex 0.836227 -7.95617 6
    endloop
  endfacet
  facet normal 0 0 1
    outer loop
      vertex 0 -8 6
      vertex 0 -8.5 6
      vertex 0.888492 -8.45344 6
    endloop
  endfacet
  facet normal 0 0 1
    outer loop
      vertex -0.836227 -7.95617 6
      vertex 0 -8.5 6
      vertex 0 -8 6
    endloop
  endfacet
  facet normal 0 0 1
    outer loop
      vertex -0.836227 -7.95617 6
      vertex -0.888492 -8.45344 6
      vertex 0 -8.5 6
    endloop
  endfacet
  facet normal 0 0 1
    outer loop
      vertex -1.66329 -7.82518 6
      vertex -0.888492 -8.45344 6
      vertex -0.836227 -7.95617 6
    endloop
  endfacet
  facet normal 0 0 1
    outer loop
      vertex -1.66329 -7.82518 6
      vertex -1.76725 -8.31425 6
      vertex -0.888492 -8.45344 6
    endloop
  endfacet
  facet normal 0 0 1
    outer loop
      vertex -2.47214 -7.60845 6
      vertex -1.76725 -8.31425 6
      vertex -1.66329 -7.82518 6
    endloop
  endfacet
  facet normal 0 0 1
    outer loop
      vertex -2.47214 -7.60845 6
      vertex -2.62664 -8.08398 6
      vertex -1.76725 -8.31425 6
    endloop
  endfacet
  facet normal 0 0 1
    outer loop
      vertex -3.25389 -7.30836 6
      vertex -2.62664 -8.08398 6
      vertex -2.47214 -7.60845 6
    endloop
  endfacet
  facet normal 0 0 1
    outer loop
      vertex -3.25389 -7.30836 6
      vertex -3.45726 -7.76514 6
      vertex -2.62664 -8.08398 6
    endloop
  endfacet
  facet normal 0 0 1
    outer loop
      vertex -4 -6.9282 6
      vertex -3.45726 -7.76514 6
      vertex -3.25389 -7.30836 6
    endloop
  endfacet
  facet normal 0 0 1
    outer loop
      vertex -4 -6.9282 6
      vertex -4.25 -7.36122 6
      vertex -3.45726 -7.76514 6
    endloop
  endfacet
  facet normal 0 0 1
    outer loop
      vertex -4.70228 -6.47214 6
      vertex -4.25 -7.36122 6
      vertex -4 -6.9282 6
    endloop
  endfacet
  facet normal 0 0 1
    outer loop
      vertex -4.70228 -6.47214 6
      vertex -4.99617 -6.87664 6
      vertex -4.25 -7.36122 6
    endloop
  endfacet
  facet normal 0 0 1
    outer loop
      vertex -5.35304 -5.94516 6
      vertex -4.99617 -6.87664 6
      vertex -4.70228 -6.47214 6
    endloop
  endfacet
  facet normal 0 0 1
    outer loop
      vertex -5.35304 -5.94516 6
      vertex -5.68761 -6.31673 6
      vertex -4.99617 -6.87664 6
    endloop
  endfacet
  facet normal 0 0 1
    outer loop
      vertex -5.94516 -5.35304 6
      vertex -5.68761 -6.31673 6
      vertex -5.35304 -5.94516 6
    endloop
  endfacet
  facet normal 0 0 1
    outer loop
      vertex -5.94516 -5.35304 6
      vertex -6.31673 -5.68761 6
      vertex -5.68761 -6.31673 6
    endloop
  endfacet
  facet normal 0 0 1
    outer loop
      vertex -6.47214 -4.70228 6
      vertex -6.31673 -5.68761 6
      vertex -5.94516 -5.35304 6
    endloop
  endfacet
  facet normal 0 0 1
    outer loop
      vertex -6.47214 -4.70228 6
      vertex -6.87664 -4.99617 6
      vertex -6.31673 -5.68761 6
    endloop
  endfacet
  facet normal 0 0 1
    outer loop
      vertex -6.9282 -4 6
      vertex -6.87664 -4.99617 6
      vertex -6.47214 -4.70228 6
    endloop
  endfacet
  facet normal 0 0 1
    outer loop
      vertex -7.36122 -4.25 6
      vertex -6.9282 -4 6
      vertex -7.30836 -3.25389 6
    endloop
  endfacet
  facet normal 0 0 1
    outer loop
      vertex -6.9282 -4 6
      vertex -7.36122 -4.25 6
      vertex -6.87664 -4.99617 6
    endloop
  endfacet
  facet normal 0 0 1
    outer loop
      vertex -7.76514 -3.45726 6
      vertex -7.30836 -3.25389 6
      vertex -7.60845 -2.47214 6
    endloop
  endfacet
  facet normal 0 0 1
    outer loop
      vertex -7.30836 -3.25389 6
      vertex -7.76514 -3.45726 6
      vertex -7.36122 -4.25 6
    endloop
  endfacet
  facet normal 0 0 1
    outer loop
      vertex -8.08398 -2.62664 6
      vertex -7.60845 -2.47214 6
      vertex -7.82518 -1.66329 6
    endloop
  endfacet
  facet normal 0 0 1
    outer loop
      vertex -8.31425 -1.76725 6
      vertex -7.82518 -1.66329 6
      vertex -7.95617 -0.836227 6
    endloop
  endfacet
  facet normal 0 0 1
    outer loop
      vertex -7.60845 -2.47214 6
      vertex -8.08398 -2.62664 6
      vertex -7.76514 -3.45726 6
    endloop
  endfacet
  facet normal 0 0 1
    outer loop
      vertex -8.45344 -0.888492 6
      vertex -7.95617 -0.836227 6
      vertex -8 0 6
    endloop
  endfacet
  facet normal -0 0 1
    outer loop
      vertex -8.45344 0.888492 6
      vertex -7.95617 0.836227 6
      vertex -8.31425 1.76725 6
    endloop
  endfacet
  facet normal 0 0 1
    outer loop
      vertex -7.95617 0.836227 6
      vertex -8.45344 0.888492 6
      vertex -8 0 6
    endloop
  endfacet
  facet normal 0 0 1
    outer loop
      vertex -7.82518 -1.66329 6
      vertex -8.31425 -1.76725 6
      vertex -8.08398 -2.62664 6
    endloop
  endfacet
  facet normal 0 0 1
    outer loop
      vertex -8.5 0 6
      vertex -8 0 6
      vertex -8.45344 0.888492 6
    endloop
  endfacet
  facet normal 0 0 1
    outer loop
      vertex -7.95617 -0.836227 6
      vertex -8.45344 -0.888492 6
      vertex -8.31425 -1.76725 6
    endloop
  endfacet
  facet normal 0 0 1
    outer loop
      vertex -8 0 6
      vertex -8.5 0 6
      vertex -8.45344 -0.888492 6
    endloop
  endfacet
  facet normal -0.987687 0.156444 0
    outer loop
      vertex -8.45344 0.888492 0
      vertex -8.31425 1.76725 6
      vertex -8.31425 1.76725 0
    endloop
  endfacet
  facet normal -0.987687 0.156444 0
    outer loop
      vertex -8.31425 1.76725 6
      vertex -8.45344 0.888492 0
      vertex -8.45344 0.888492 6
    endloop
  endfacet
  facet normal -0.933582 0.358363 0
    outer loop
      vertex -8.08398 2.62664 0
      vertex -7.76514 3.45726 6
      vertex -7.76514 3.45726 0
    endloop
  endfacet
  facet normal -0.933582 0.358363 0
    outer loop
      vertex -7.76514 3.45726 6
      vertex -8.08398 2.62664 0
      vertex -8.08398 2.62664 6
    endloop
  endfacet
  facet normal -0.544648 0.838665 0
    outer loop
      vertex -4.25 7.36122 0
      vertex -4.99617 6.87664 6
      vertex -4.25 7.36122 6
    endloop
  endfacet
  facet normal -0.544648 0.838665 0
    outer loop
      vertex -4.99617 6.87664 6
      vertex -4.25 7.36122 0
      vertex -4.99617 6.87664 0
    endloop
  endfacet
  facet normal -0.258816 0.965927 0
    outer loop
      vertex -1.76725 8.31425 0
      vertex -2.62664 8.08398 6
      vertex -1.76725 8.31425 6
    endloop
  endfacet
  facet normal -0.258816 0.965927 0
    outer loop
      vertex -2.62664 8.08398 6
      vertex -1.76725 8.31425 0
      vertex -2.62664 8.08398 0
    endloop
  endfacet
  facet normal 0.358363 -0.933582 0
    outer loop
      vertex 2.62664 -8.08398 0
      vertex 3.45726 -7.76514 6
      vertex 2.62664 -8.08398 6
    endloop
  endfacet
  facet normal 0.358363 -0.933582 0
    outer loop
      vertex 3.45726 -7.76514 6
      vertex 2.62664 -8.08398 0
      vertex 3.45726 -7.76514 0
    endloop
  endfacet
  facet normal 0.544648 -0.838665 0
    outer loop
      vertex 4.25 -7.36122 0
      vertex 4.99617 -6.87664 6
      vertex 4.25 -7.36122 6
    endloop
  endfacet
  facet normal 0.544648 -0.838665 0
    outer loop
      vertex 4.99617 -6.87664 6
      vertex 4.25 -7.36122 0
      vertex 4.99617 -6.87664 0
    endloop
  endfacet
  facet normal 0.933582 -0.358363 0
    outer loop
      vertex 7.76514 -3.45726 6
      vertex 8.08398 -2.62664 0
      vertex 8.08398 -2.62664 6
    endloop
  endfacet
  facet normal 0.933582 -0.358363 0
    outer loop
      vertex 8.08398 -2.62664 0
      vertex 7.76514 -3.45726 6
      vertex 7.76514 -3.45726 0
    endloop
  endfacet
  facet normal 0.987687 -0.156444 0
    outer loop
      vertex 8.31425 -1.76725 6
      vertex 8.45344 -0.888492 0
      vertex 8.45344 -0.888492 6
    endloop
  endfacet
  facet normal 0.987687 -0.156444 0
    outer loop
      vertex 8.45344 -0.888492 0
      vertex 8.31425 -1.76725 6
      vertex 8.31425 -1.76725 0
    endloop
  endfacet
  facet normal 0.99863 -0.0523316 0
    outer loop
      vertex 8.45344 -0.888492 6
      vertex 8.5 0 0
      vertex 8.5 0 6
    endloop
  endfacet
  facet normal 0.99863 -0.0523316 0
    outer loop
      vertex 8.5 0 0
      vertex 8.45344 -0.888492 6
      vertex 8.45344 -0.888492 0
    endloop
  endfacet
  facet normal -0.258816 -0.965927 0
    outer loop
      vertex -2.62664 -8.08398 0
      vertex -1.76725 -8.31425 6
      vertex -2.62664 -8.08398 6
    endloop
  endfacet
  facet normal -0.258816 -0.965927 -0
    outer loop
      vertex -1.76725 -8.31425 6
      vertex -2.62664 -8.08398 0
      vertex -1.76725 -8.31425 0
    endloop
  endfacet
  facet normal -0.453989 -0.891007 0
    outer loop
      vertex -4.25 -7.36122 0
      vertex -3.45726 -7.76514 6
      vertex -4.25 -7.36122 6
    endloop
  endfacet
  facet normal -0.453989 -0.891007 -0
    outer loop
      vertex -3.45726 -7.76514 6
      vertex -4.25 -7.36122 0
      vertex -3.45726 -7.76514 0
    endloop
  endfacet
  facet normal -0.987687 -0.156444 0
    outer loop
      vertex -8.31425 -1.76725 0
      vertex -8.45344 -0.888492 6
      vertex -8.45344 -0.888492 0
    endloop
  endfacet
  facet normal -0.987687 -0.156444 0
    outer loop
      vertex -8.45344 -0.888492 6
      vertex -8.31425 -1.76725 0
      vertex -8.31425 -1.76725 6
    endloop
  endfacet
  facet normal -0.965926 -0.258818 0
    outer loop
      vertex 7.82518 1.66329 0
      vertex 7.60845 2.47214 6
      vertex 7.60845 2.47214 0
    endloop
  endfacet
  facet normal -0.965926 -0.258818 0
    outer loop
      vertex 7.60845 2.47214 6
      vertex 7.82518 1.66329 0
      vertex 7.82518 1.66329 6
    endloop
  endfacet
  facet normal -0.998629 -0.0523421 0
    outer loop
      vertex 8 0 0
      vertex 7.95617 0.836227 6
      vertex 7.95617 0.836227 0
    endloop
  endfacet
  facet normal -0.998629 -0.0523421 0
    outer loop
      vertex 7.95617 0.836227 6
      vertex 8 0 0
      vertex 8 0 6
    endloop
  endfacet
  facet normal 0.998629 -0.0523421 0
    outer loop
      vertex -8 0 6
      vertex -7.95617 0.836227 0
      vertex -7.95617 0.836227 6
    endloop
  endfacet
  facet normal 0.998629 -0.0523421 0
    outer loop
      vertex -7.95617 0.836227 0
      vertex -8 0 6
      vertex -8 0 0
    endloop
  endfacet
  facet normal -0.0523421 -0.998629 0
    outer loop
      vertex 0 8 0
      vertex 0.836227 7.95617 6
      vertex 0 8 6
    endloop
  endfacet
  facet normal -0.0523421 -0.998629 -0
    outer loop
      vertex 0.836227 7.95617 6
      vertex 0 8 0
      vertex 0.836227 7.95617 0
    endloop
  endfacet
  facet normal -0.707107 -0.707107 0
    outer loop
      vertex 5.94516 5.35304 0
      vertex 5.35304 5.94516 6
      vertex 5.35304 5.94516 0
    endloop
  endfacet
  facet normal -0.707107 -0.707107 0
    outer loop
      vertex 5.35304 5.94516 6
      vertex 5.94516 5.35304 0
      vertex 5.94516 5.35304 6
    endloop
  endfacet
  facet normal 0.629324 -0.777143 0
    outer loop
      vertex -5.35304 5.94516 0
      vertex -4.70228 6.47214 6
      vertex -5.35304 5.94516 6
    endloop
  endfacet
  facet normal 0.629324 -0.777143 0
    outer loop
      vertex -4.70228 6.47214 6
      vertex -5.35304 5.94516 0
      vertex -4.70228 6.47214 0
    endloop
  endfacet
  facet normal 0.258818 -0.965926 0
    outer loop
      vertex -2.47214 7.60845 0
      vertex -1.66329 7.82518 6
      vertex -2.47214 7.60845 6
    endloop
  endfacet
  facet normal 0.258818 -0.965926 0
    outer loop
      vertex -1.66329 7.82518 6
      vertex -2.47214 7.60845 0
      vertex -1.66329 7.82518 0
    endloop
  endfacet
  facet normal 0.838674 0.544634 0
    outer loop
      vertex -6.47214 -4.70228 6
      vertex -6.9282 -4 0
      vertex -6.9282 -4 6
    endloop
  endfacet
  facet normal 0.838674 0.544634 0
    outer loop
      vertex -6.9282 -4 0
      vertex -6.47214 -4.70228 6
      vertex -6.47214 -4.70228 0
    endloop
  endfacet
  facet normal -0.933579 -0.358372 0
    outer loop
      vertex 7.60845 2.47214 0
      vertex 7.30836 3.25389 6
      vertex 7.30836 3.25389 0
    endloop
  endfacet
  facet normal -0.933579 -0.358372 0
    outer loop
      vertex 7.30836 3.25389 6
      vertex 7.60845 2.47214 0
      vertex 7.60845 2.47214 6
    endloop
  endfacet
  facet normal -0.838674 -0.544634 0
    outer loop
      vertex 6.9282 4 0
      vertex 6.47214 4.70228 6
      vertex 6.47214 4.70228 0
    endloop
  endfacet
  facet normal -0.838674 -0.544634 0
    outer loop
      vertex 6.47214 4.70228 6
      vertex 6.9282 4 0
      vertex 6.9282 4 6
    endloop
  endfacet
  facet normal -0.358372 -0.933579 0
    outer loop
      vertex 2.47214 7.60845 0
      vertex 3.25389 7.30836 6
      vertex 2.47214 7.60845 6
    endloop
  endfacet
  facet normal -0.358372 -0.933579 -0
    outer loop
      vertex 3.25389 7.30836 6
      vertex 2.47214 7.60845 0
      vertex 3.25389 7.30836 0
    endloop
  endfacet
  facet normal -0.15643 -0.987689 0
    outer loop
      vertex 0.836227 7.95617 0
      vertex 1.66329 7.82518 6
      vertex 0.836227 7.95617 6
    endloop
  endfacet
  facet normal -0.15643 -0.987689 -0
    outer loop
      vertex 1.66329 7.82518 6
      vertex 0.836227 7.95617 0
      vertex 1.66329 7.82518 0
    endloop
  endfacet
  facet normal 0.838674 -0.544634 0
    outer loop
      vertex -6.9282 4 6
      vertex -6.47214 4.70228 0
      vertex -6.47214 4.70228 6
    endloop
  endfacet
  facet normal 0.838674 -0.544634 0
    outer loop
      vertex -6.47214 4.70228 0
      vertex -6.9282 4 6
      vertex -6.9282 4 0
    endloop
  endfacet
  facet normal 0.777143 -0.629324 0
    outer loop
      vertex -6.47214 4.70228 6
      vertex -5.94516 5.35304 0
      vertex -5.94516 5.35304 6
    endloop
  endfacet
  facet normal 0.777143 -0.629324 0
    outer loop
      vertex -5.94516 5.35304 0
      vertex -6.47214 4.70228 6
      vertex -6.47214 4.70228 0
    endloop
  endfacet
  facet normal 0.0523421 -0.998629 0
    outer loop
      vertex -0.836227 7.95617 0
      vertex 0 8 6
      vertex -0.836227 7.95617 6
    endloop
  endfacet
  facet normal 0.0523421 -0.998629 0
    outer loop
      vertex 0 8 6
      vertex -0.836227 7.95617 0
      vertex 0 8 0
    endloop
  endfacet
  facet normal -0.891008 0.453989 0
    outer loop
      vertex 6.9282 -4 0
      vertex 7.30836 -3.25389 6
      vertex 7.30836 -3.25389 0
    endloop
  endfacet
  facet normal -0.891008 0.453989 0
    outer loop
      vertex 7.30836 -3.25389 6
      vertex 6.9282 -4 0
      vertex 6.9282 -4 6
    endloop
  endfacet
  facet normal -0.258818 0.965926 0
    outer loop
      vertex 2.47214 -7.60845 0
      vertex 1.66329 -7.82518 6
      vertex 2.47214 -7.60845 6
    endloop
  endfacet
  facet normal -0.258818 0.965926 0
    outer loop
      vertex 1.66329 -7.82518 6
      vertex 2.47214 -7.60845 0
      vertex 1.66329 -7.82518 0
    endloop
  endfacet
  facet normal -0.707107 0.707107 0
    outer loop
      vertex 5.35304 -5.94516 0
      vertex 5.94516 -5.35304 6
      vertex 5.94516 -5.35304 0
    endloop
  endfacet
  facet normal -0.707107 0.707107 0
    outer loop
      vertex 5.94516 -5.35304 6
      vertex 5.35304 -5.94516 0
      vertex 5.35304 -5.94516 6
    endloop
  endfacet
  facet normal -0.965926 0.258818 0
    outer loop
      vertex 7.60845 -2.47214 0
      vertex 7.82518 -1.66329 6
      vertex 7.82518 -1.66329 0
    endloop
  endfacet
  facet normal -0.965926 0.258818 0
    outer loop
      vertex 7.82518 -1.66329 6
      vertex 7.60845 -2.47214 0
      vertex 7.60845 -2.47214 6
    endloop
  endfacet
  facet normal 0.358372 0.933579 -0
    outer loop
      vertex -2.47214 -7.60845 0
      vertex -3.25389 -7.30836 6
      vertex -2.47214 -7.60845 6
    endloop
  endfacet
  facet normal 0.358372 0.933579 0
    outer loop
      vertex -3.25389 -7.30836 6
      vertex -2.47214 -7.60845 0
      vertex -3.25389 -7.30836 0
    endloop
  endfacet
  facet normal 0.544634 0.838674 -0
    outer loop
      vertex -4 -6.9282 0
      vertex -4.70228 -6.47214 6
      vertex -4 -6.9282 6
    endloop
  endfacet
  facet normal 0.544634 0.838674 0
    outer loop
      vertex -4.70228 -6.47214 6
      vertex -4 -6.9282 0
      vertex -4.70228 -6.47214 0
    endloop
  endfacet
  facet normal 0.998629 0.0523421 0
    outer loop
      vertex -7.95617 -0.836227 6
      vertex -8 0 0
      vertex -8 0 6
    endloop
  endfacet
  facet normal 0.998629 0.0523421 0
    outer loop
      vertex -8 0 0
      vertex -7.95617 -0.836227 6
      vertex -7.95617 -0.836227 0
    endloop
  endfacet
  facet normal -0.987689 -0.15643 0
    outer loop
      vertex 7.95617 0.836227 0
      vertex 7.82518 1.66329 6
      vertex 7.82518 1.66329 0
    endloop
  endfacet
  facet normal -0.987689 -0.15643 0
    outer loop
      vertex 7.82518 1.66329 6
      vertex 7.95617 0.836227 0
      vertex 7.95617 0.836227 6
    endloop
  endfacet
  facet normal -0.891008 -0.453989 0
    outer loop
      vertex 7.30836 3.25389 0
      vertex 6.9282 4 6
      vertex 6.9282 4 0
    endloop
  endfacet
  facet normal -0.891008 -0.453989 0
    outer loop
      vertex 6.9282 4 6
      vertex 7.30836 3.25389 0
      vertex 7.30836 3.25389 6
    endloop
  endfacet
  facet normal -0.777143 -0.629324 0
    outer loop
      vertex 6.47214 4.70228 0
      vertex 5.94516 5.35304 6
      vertex 5.94516 5.35304 0
    endloop
  endfacet
  facet normal -0.777143 -0.629324 0
    outer loop
      vertex 5.94516 5.35304 6
      vertex 6.47214 4.70228 0
      vertex 6.47214 4.70228 6
    endloop
  endfacet
  facet normal -0.258818 -0.965926 0
    outer loop
      vertex 1.66329 7.82518 0
      vertex 2.47214 7.60845 6
      vertex 1.66329 7.82518 6
    endloop
  endfacet
  facet normal -0.258818 -0.965926 -0
    outer loop
      vertex 2.47214 7.60845 6
      vertex 1.66329 7.82518 0
      vertex 2.47214 7.60845 0
    endloop
  endfacet
  facet normal -0.629324 -0.777143 0
    outer loop
      vertex 4.70228 6.47214 0
      vertex 5.35304 5.94516 6
      vertex 4.70228 6.47214 6
    endloop
  endfacet
  facet normal -0.629324 -0.777143 -0
    outer loop
      vertex 5.35304 5.94516 6
      vertex 4.70228 6.47214 0
      vertex 5.35304 5.94516 0
    endloop
  endfacet
  facet normal -0.544634 -0.838674 0
    outer loop
      vertex 4 6.9282 0
      vertex 4.70228 6.47214 6
      vertex 4 6.9282 6
    endloop
  endfacet
  facet normal -0.544634 -0.838674 -0
    outer loop
      vertex 4.70228 6.47214 6
      vertex 4 6.9282 0
      vertex 4.70228 6.47214 0
    endloop
  endfacet
  facet normal 0.707107 -0.707107 0
    outer loop
      vertex -5.94516 5.35304 6
      vertex -5.35304 5.94516 0
      vertex -5.35304 5.94516 6
    endloop
  endfacet
  facet normal 0.707107 -0.707107 0
    outer loop
      vertex -5.35304 5.94516 0
      vertex -5.94516 5.35304 6
      vertex -5.94516 5.35304 0
    endloop
  endfacet
  facet normal 0.891008 -0.453989 0
    outer loop
      vertex -7.30836 3.25389 6
      vertex -6.9282 4 0
      vertex -6.9282 4 6
    endloop
  endfacet
  facet normal 0.891008 -0.453989 0
    outer loop
      vertex -6.9282 4 0
      vertex -7.30836 3.25389 6
      vertex -7.30836 3.25389 0
    endloop
  endfacet
  facet normal 0.933579 -0.358372 0
    outer loop
      vertex -7.60845 2.47214 6
      vertex -7.30836 3.25389 0
      vertex -7.30836 3.25389 6
    endloop
  endfacet
  facet normal 0.933579 -0.358372 0
    outer loop
      vertex -7.30836 3.25389 0
      vertex -7.60845 2.47214 6
      vertex -7.60845 2.47214 0
    endloop
  endfacet
  facet normal 0.965926 -0.258818 0
    outer loop
      vertex -7.82518 1.66329 6
      vertex -7.60845 2.47214 0
      vertex -7.60845 2.47214 6
    endloop
  endfacet
  facet normal 0.965926 -0.258818 0
    outer loop
      vertex -7.60845 2.47214 0
      vertex -7.82518 1.66329 6
      vertex -7.82518 1.66329 0
    endloop
  endfacet
  facet normal 0.987689 -0.15643 0
    outer loop
      vertex -7.95617 0.836227 6
      vertex -7.82518 1.66329 0
      vertex -7.82518 1.66329 6
    endloop
  endfacet
  facet normal 0.987689 -0.15643 0
    outer loop
      vertex -7.82518 1.66329 0
      vertex -7.95617 0.836227 6
      vertex -7.95617 0.836227 0
    endloop
  endfacet
  facet normal 0.358372 -0.933579 0
    outer loop
      vertex -3.25389 7.30836 0
      vertex -2.47214 7.60845 6
      vertex -3.25389 7.30836 6
    endloop
  endfacet
  facet normal 0.358372 -0.933579 0
    outer loop
      vertex -2.47214 7.60845 6
      vertex -3.25389 7.30836 0
      vertex -2.47214 7.60845 0
    endloop
  endfacet
  facet normal 0.453989 -0.891008 0
    outer loop
      vertex -4 6.9282 0
      vertex -3.25389 7.30836 6
      vertex -4 6.9282 6
    endloop
  endfacet
  facet normal 0.453989 -0.891008 0
    outer loop
      vertex -3.25389 7.30836 6
      vertex -4 6.9282 0
      vertex -3.25389 7.30836 0
    endloop
  endfacet
  facet normal 0.544634 -0.838674 0
    outer loop
      vertex -4.70228 6.47214 0
      vertex -4 6.9282 6
      vertex -4.70228 6.47214 6
    endloop
  endfacet
  facet normal 0.544634 -0.838674 0
    outer loop
      vertex -4 6.9282 6
      vertex -4.70228 6.47214 0
      vertex -4 6.9282 0
    endloop
  endfacet
  facet normal 0.15643 -0.987689 0
    outer loop
      vertex -1.66329 7.82518 0
      vertex -0.836227 7.95617 6
      vertex -1.66329 7.82518 6
    endloop
  endfacet
  facet normal 0.15643 -0.987689 0
    outer loop
      vertex -0.836227 7.95617 6
      vertex -1.66329 7.82518 0
      vertex -0.836227 7.95617 0
    endloop
  endfacet
  facet normal -0.0523421 0.998629 0
    outer loop
      vertex 0.836227 -7.95617 0
      vertex 0 -8 6
      vertex 0.836227 -7.95617 6
    endloop
  endfacet
  facet normal -0.0523421 0.998629 0
    outer loop
      vertex 0 -8 6
      vertex 0.836227 -7.95617 0
      vertex 0 -8 0
    endloop
  endfacet
  facet normal -0.15643 0.987689 0
    outer loop
      vertex 1.66329 -7.82518 0
      vertex 0.836227 -7.95617 6
      vertex 1.66329 -7.82518 6
    endloop
  endfacet
  facet normal -0.15643 0.987689 0
    outer loop
      vertex 0.836227 -7.95617 6
      vertex 1.66329 -7.82518 0
      vertex 0.836227 -7.95617 0
    endloop
  endfacet
  facet normal -0.453989 0.891008 0
    outer loop
      vertex 4 -6.9282 0
      vertex 3.25389 -7.30836 6
      vertex 4 -6.9282 6
    endloop
  endfacet
  facet normal -0.453989 0.891008 0
    outer loop
      vertex 3.25389 -7.30836 6
      vertex 4 -6.9282 0
      vertex 3.25389 -7.30836 0
    endloop
  endfacet
  facet normal -0.629324 0.777143 0
    outer loop
      vertex 5.35304 -5.94516 0
      vertex 4.70228 -6.47214 6
      vertex 5.35304 -5.94516 6
    endloop
  endfacet
  facet normal -0.629324 0.777143 0
    outer loop
      vertex 4.70228 -6.47214 6
      vertex 5.35304 -5.94516 0
      vertex 4.70228 -6.47214 0
    endloop
  endfacet
  facet normal -0.777143 0.629324 0
    outer loop
      vertex 5.94516 -5.35304 0
      vertex 6.47214 -4.70228 6
      vertex 6.47214 -4.70228 0
    endloop
  endfacet
  facet normal -0.777143 0.629324 0
    outer loop
      vertex 6.47214 -4.70228 6
      vertex 5.94516 -5.35304 0
      vertex 5.94516 -5.35304 6
    endloop
  endfacet
  facet normal -0.838674 0.544634 0
    outer loop
      vertex 6.47214 -4.70228 0
      vertex 6.9282 -4 6
      vertex 6.9282 -4 0
    endloop
  endfacet
  facet normal -0.838674 0.544634 0
    outer loop
      vertex 6.9282 -4 6
      vertex 6.47214 -4.70228 0
      vertex 6.47214 -4.70228 6
    endloop
  endfacet
  facet normal 0.15643 0.987689 -0
    outer loop
      vertex -0.836227 -7.95617 0
      vertex -1.66329 -7.82518 6
      vertex -0.836227 -7.95617 6
    endloop
  endfacet
  facet normal 0.15643 0.987689 0
    outer loop
      vertex -1.66329 -7.82518 6
      vertex -0.836227 -7.95617 0
      vertex -1.66329 -7.82518 0
    endloop
  endfacet
  facet normal 0.707107 0.707107 0
    outer loop
      vertex -5.35304 -5.94516 6
      vertex -5.94516 -5.35304 0
      vertex -5.94516 -5.35304 6
    endloop
  endfacet
  facet normal 0.707107 0.707107 0
    outer loop
      vertex -5.94516 -5.35304 0
      vertex -5.35304 -5.94516 6
      vertex -5.35304 -5.94516 0
    endloop
  endfacet
  facet normal 0.453989 0.891008 -0
    outer loop
      vertex -3.25389 -7.30836 0
      vertex -4 -6.9282 6
      vertex -3.25389 -7.30836 6
    endloop
  endfacet
  facet normal 0.453989 0.891008 0
    outer loop
      vertex -4 -6.9282 6
      vertex -3.25389 -7.30836 0
      vertex -4 -6.9282 0
    endloop
  endfacet
  facet normal 0.0523421 0.998629 -0
    outer loop
      vertex 0 -8 0
      vertex -0.836227 -7.95617 6
      vertex 0 -8 6
    endloop
  endfacet
  facet normal 0.0523421 0.998629 0
    outer loop
      vertex -0.836227 -7.95617 6
      vertex 0 -8 0
      vertex -0.836227 -7.95617 0
    endloop
  endfacet
  facet normal 0.629324 0.777143 -0
    outer loop
      vertex -4.70228 -6.47214 0
      vertex -5.35304 -5.94516 6
      vertex -4.70228 -6.47214 6
    endloop
  endfacet
  facet normal 0.629324 0.777143 0
    outer loop
      vertex -5.35304 -5.94516 6
      vertex -4.70228 -6.47214 0
      vertex -5.35304 -5.94516 0
    endloop
  endfacet
  facet normal 0.777143 0.629324 0
    outer loop
      vertex -5.94516 -5.35304 6
      vertex -6.47214 -4.70228 0
      vertex -6.47214 -4.70228 6
    endloop
  endfacet
  facet normal 0.777143 0.629324 0
    outer loop
      vertex -6.47214 -4.70228 0
      vertex -5.94516 -5.35304 6
      vertex -5.94516 -5.35304 0
    endloop
  endfacet
  facet normal 0.933579 0.358372 0
    outer loop
      vertex -7.30836 -3.25389 6
      vertex -7.60845 -2.47214 0
      vertex -7.60845 -2.47214 6
    endloop
  endfacet
  facet normal 0.933579 0.358372 0
    outer loop
      vertex -7.60845 -2.47214 0
      vertex -7.30836 -3.25389 6
      vertex -7.30836 -3.25389 0
    endloop
  endfacet
  facet normal 0.987689 0.15643 0
    outer loop
      vertex -7.82518 -1.66329 6
      vertex -7.95617 -0.836227 0
      vertex -7.95617 -0.836227 6
    endloop
  endfacet
  facet normal 0.987689 0.15643 0
    outer loop
      vertex -7.95617 -0.836227 0
      vertex -7.82518 -1.66329 6
      vertex -7.82518 -1.66329 0
    endloop
  endfacet
  facet normal 0.965926 0.258818 0
    outer loop
      vertex -7.60845 -2.47214 6
      vertex -7.82518 -1.66329 0
      vertex -7.82518 -1.66329 6
    endloop
  endfacet
  facet normal 0.965926 0.258818 0
    outer loop
      vertex -7.82518 -1.66329 0
      vertex -7.60845 -2.47214 6
      vertex -7.60845 -2.47214 0
    endloop
  endfacet
  facet normal -0.453989 -0.891008 0
    outer loop
      vertex 3.25389 7.30836 0
      vertex 4 6.9282 6
      vertex 3.25389 7.30836 6
    endloop
  endfacet
  facet normal -0.453989 -0.891008 -0
    outer loop
      vertex 4 6.9282 6
      vertex 3.25389 7.30836 0
      vertex 4 6.9282 0
    endloop
  endfacet
  facet normal -0.358372 0.933579 0
    outer loop
      vertex 3.25389 -7.30836 0
      vertex 2.47214 -7.60845 6
      vertex 3.25389 -7.30836 6
    endloop
  endfacet
  facet normal -0.358372 0.933579 0
    outer loop
      vertex 2.47214 -7.60845 6
      vertex 3.25389 -7.30836 0
      vertex 2.47214 -7.60845 0
    endloop
  endfacet
  facet normal -0.544634 0.838674 0
    outer loop
      vertex 4.70228 -6.47214 0
      vertex 4 -6.9282 6
      vertex 4.70228 -6.47214 6
    endloop
  endfacet
  facet normal -0.544634 0.838674 0
    outer loop
      vertex 4 -6.9282 6
      vertex 4.70228 -6.47214 0
      vertex 4 -6.9282 0
    endloop
  endfacet
  facet normal -0.933579 0.358372 0
    outer loop
      vertex 7.30836 -3.25389 0
      vertex 7.60845 -2.47214 6
      vertex 7.60845 -2.47214 0
    endloop
  endfacet
  facet normal -0.933579 0.358372 0
    outer loop
      vertex 7.60845 -2.47214 6
      vertex 7.30836 -3.25389 0
      vertex 7.30836 -3.25389 6
    endloop
  endfacet
  facet normal -0.987689 0.15643 0
    outer loop
      vertex 7.82518 -1.66329 0
      vertex 7.95617 -0.836227 6
      vertex 7.95617 -0.836227 0
    endloop
  endfacet
  facet normal -0.987689 0.15643 0
    outer loop
      vertex 7.95617 -0.836227 6
      vertex 7.82518 -1.66329 0
      vertex 7.82518 -1.66329 6
    endloop
  endfacet
  facet normal -0.998629 0.0523421 0
    outer loop
      vertex 7.95617 -0.836227 0
      vertex 8 0 6
      vertex 8 0 0
    endloop
  endfacet
  facet normal -0.998629 0.0523421 0
    outer loop
      vertex 8 0 6
      vertex 7.95617 -0.836227 0
      vertex 7.95617 -0.836227 6
    endloop
  endfacet
  facet normal 0.258818 0.965926 -0
    outer loop
      vertex -1.66329 -7.82518 0
      vertex -2.47214 -7.60845 6
      vertex -1.66329 -7.82518 6
    endloop
  endfacet
  facet normal 0.258818 0.965926 0
    outer loop
      vertex -2.47214 -7.60845 6
      vertex -1.66329 -7.82518 0
      vertex -2.47214 -7.60845 0
    endloop
  endfacet
  facet normal 0.891008 0.453989 0
    outer loop
      vertex -6.9282 -4 6
      vertex -7.30836 -3.25389 0
      vertex -7.30836 -3.25389 6
    endloop
  endfacet
  facet normal 0.891008 0.453989 0
    outer loop
      vertex -7.30836 -3.25389 0
      vertex -6.9282 -4 6
      vertex -6.9282 -4 0
    endloop
  endfacet
endsolid OpenSCAD_Model
